<?xml version="1.0" encoding="UTF-8" standalone="no"?>
<!DOCTYPE svg PUBLIC "-//W3C//DTD SVG 1.1//EN"
 "http://www.w3.org/Graphics/SVG/1.1/DTD/svg11.dtd">
<!-- Generated by graphviz version 2.47.3 (20210619.1520)
 -->
<!-- Title: dependencies Pages: 1 -->
<svg width="2252pt" height="247pt"
 viewBox="0.00 0.00 2252.00 246.80" xmlns="http://www.w3.org/2000/svg" xmlns:xlink="http://www.w3.org/1999/xlink">
<g id="graph0" class="graph" transform="scale(1 1) rotate(0) translate(4 242.8)">
<title>dependencies</title>
<polygon fill="white" stroke="transparent" points="-4,4 -4,-242.8 2248,-242.8 2248,4 -4,4"/>
<text text-anchor="middle" x="1122" y="-8.2" font-family="sans-serif" font-size="14.00">dependencies</text>
<g id="clust1" class="cluster">
<title>cluster_AppModule</title>
<polygon fill="none" stroke="black" stroke-dasharray="1,5" points="8,-32.8 8,-230.8 2236,-230.8 2236,-32.8 8,-32.8"/>
</g>
<g id="clust18" class="cluster">
<title>cluster_AppModule_bootstrap</title>
<polygon fill="none" stroke="black" points="1039,-170.8 1039,-222.8 1163,-222.8 1163,-170.8 1039,-170.8"/>
</g>
<g id="clust16" class="cluster">
<title>cluster_AppModule_imports</title>
<polygon fill="none" stroke="black" points="1978,-40.8 1978,-92.8 2228,-92.8 2228,-40.8 1978,-40.8"/>
</g>
<g id="clust2" class="cluster">
<title>cluster_AppModule_declarations</title>
<polygon fill="none" stroke="black" points="16,-40.8 16,-92.8 1970,-92.8 1970,-40.8 16,-40.8"/>
</g>
<!-- AppComponent -->
<g id="node1" class="node">
<title>AppComponent</title>
<polygon fill="#ffffb3" stroke="black" points="1961.94,-84.8 1856.06,-84.8 1856.06,-48.8 1961.94,-48.8 1961.94,-84.8"/>
<text text-anchor="middle" x="1909" y="-62.6" font-family="Times,serif" font-size="14.00">AppComponent</text>
</g>
<!-- AppModule -->
<g id="node14" class="node">
<title>AppModule</title>
<polygon fill="#8dd3c7" stroke="black" points="1142.66,-149.8 1139.66,-153.8 1118.66,-153.8 1115.66,-149.8 1059.34,-149.8 1059.34,-113.8 1142.66,-113.8 1142.66,-149.8"/>
<text text-anchor="middle" x="1101" y="-127.6" font-family="Times,serif" font-size="14.00">AppModule</text>
</g>
<!-- AppComponent&#45;&gt;AppModule -->
<g id="edge1" class="edge">
<title>AppComponent&#45;&gt;AppModule</title>
<path fill="none" stroke="black" d="M1909,-84.83C1909,-105.57 1909,-136.8 1909,-136.8 1909,-136.8 1152.74,-136.8 1152.74,-136.8"/>
<polygon fill="black" stroke="black" points="1152.74,-133.3 1142.74,-136.8 1152.74,-140.3 1152.74,-133.3"/>
</g>
<!-- CarritoComponent -->
<g id="node2" class="node">
<title>CarritoComponent</title>
<polygon fill="#ffffb3" stroke="black" points="1838.49,-84.8 1717.51,-84.8 1717.51,-48.8 1838.49,-48.8 1838.49,-84.8"/>
<text text-anchor="middle" x="1778" y="-62.6" font-family="Times,serif" font-size="14.00">CarritoComponent</text>
</g>
<!-- CarritoComponent&#45;&gt;AppModule -->
<g id="edge2" class="edge">
<title>CarritoComponent&#45;&gt;AppModule</title>
<path fill="none" stroke="black" d="M1778,-84.91C1778,-104.14 1778,-131.8 1778,-131.8 1778,-131.8 1152.84,-131.8 1152.84,-131.8"/>
<polygon fill="black" stroke="black" points="1152.84,-128.3 1142.84,-131.8 1152.84,-135.3 1152.84,-128.3"/>
</g>
<!-- CarroNavbarComponent -->
<g id="node3" class="node">
<title>CarroNavbarComponent</title>
<polygon fill="#ffffb3" stroke="black" points="1699.4,-84.8 1544.6,-84.8 1544.6,-48.8 1699.4,-48.8 1699.4,-84.8"/>
<text text-anchor="middle" x="1622" y="-62.6" font-family="Times,serif" font-size="14.00">CarroNavbarComponent</text>
</g>
<!-- CarroNavbarComponent&#45;&gt;AppModule -->
<g id="edge3" class="edge">
<title>CarroNavbarComponent&#45;&gt;AppModule</title>
<path fill="none" stroke="black" d="M1622,-85.1C1622,-103.07 1622,-127.8 1622,-127.8 1622,-127.8 1152.75,-127.8 1152.75,-127.8"/>
<polygon fill="black" stroke="black" points="1152.75,-124.3 1142.75,-127.8 1152.75,-131.3 1152.75,-124.3"/>
</g>
<!-- CarruselComponent -->
<g id="node4" class="node">
<title>CarruselComponent</title>
<polygon fill="#ffffb3" stroke="black" points="1526.25,-84.8 1397.75,-84.8 1397.75,-48.8 1526.25,-48.8 1526.25,-84.8"/>
<text text-anchor="middle" x="1462" y="-62.6" font-family="Times,serif" font-size="14.00">CarruselComponent</text>
</g>
<!-- CarruselComponent&#45;&gt;AppModule -->
<g id="edge4" class="edge">
<title>CarruselComponent&#45;&gt;AppModule</title>
<path fill="none" stroke="black" d="M1462,-84.83C1462,-101.2 1462,-122.8 1462,-122.8 1462,-122.8 1152.76,-122.8 1152.76,-122.8"/>
<polygon fill="black" stroke="black" points="1152.76,-119.3 1142.76,-122.8 1152.76,-126.3 1152.76,-119.3"/>
</g>
<!-- DetalleProductoComponent -->
<g id="node5" class="node">
<title>DetalleProductoComponent</title>
<polygon fill="#ffffb3" stroke="black" points="1379.3,-84.8 1206.7,-84.8 1206.7,-48.8 1379.3,-48.8 1379.3,-84.8"/>
<text text-anchor="middle" x="1293" y="-62.6" font-family="Times,serif" font-size="14.00">DetalleProductoComponent</text>
</g>
<!-- DetalleProductoComponent&#45;&gt;AppModule -->
<g id="edge5" class="edge">
<title>DetalleProductoComponent&#45;&gt;AppModule</title>
<path fill="none" stroke="black" d="M1293,-84.99C1293,-99.98 1293,-118.8 1293,-118.8 1293,-118.8 1152.66,-118.8 1152.66,-118.8"/>
<polygon fill="black" stroke="black" points="1152.66,-115.3 1142.66,-118.8 1152.66,-122.3 1152.66,-115.3"/>
</g>
<!-- FinalizarCompraComponent -->
<g id="node6" class="node">
<title>FinalizarCompraComponent</title>
<polygon fill="#ffffb3" stroke="black" points="1189.19,-84.8 1012.81,-84.8 1012.81,-48.8 1189.19,-48.8 1189.19,-84.8"/>
<text text-anchor="middle" x="1101" y="-62.6" font-family="Times,serif" font-size="14.00">FinalizarCompraComponent</text>
</g>
<!-- FinalizarCompraComponent&#45;&gt;AppModule -->
<g id="edge6" class="edge">
<title>FinalizarCompraComponent&#45;&gt;AppModule</title>
<path fill="none" stroke="black" d="M1101,-84.91C1101,-84.91 1101,-103.79 1101,-103.79"/>
<polygon fill="black" stroke="black" points="1097.5,-103.79 1101,-113.79 1104.5,-103.79 1097.5,-103.79"/>
</g>
<!-- FooterComponent -->
<g id="node7" class="node">
<title>FooterComponent</title>
<polygon fill="#ffffb3" stroke="black" points="994.88,-84.8 877.12,-84.8 877.12,-48.8 994.88,-48.8 994.88,-84.8"/>
<text text-anchor="middle" x="936" y="-62.6" font-family="Times,serif" font-size="14.00">FooterComponent</text>
</g>
<!-- FooterComponent&#45;&gt;AppModule -->
<g id="edge7" class="edge">
<title>FooterComponent&#45;&gt;AppModule</title>
<path fill="none" stroke="black" d="M936,-84.99C936,-99.98 936,-118.8 936,-118.8 936,-118.8 1048.94,-118.8 1048.94,-118.8"/>
<polygon fill="black" stroke="black" points="1048.94,-122.3 1058.94,-118.8 1048.94,-115.3 1048.94,-122.3"/>
</g>
<!-- HomeComponent -->
<g id="node8" class="node">
<title>HomeComponent</title>
<polygon fill="#ffffb3" stroke="black" points="858.55,-84.8 743.45,-84.8 743.45,-48.8 858.55,-48.8 858.55,-84.8"/>
<text text-anchor="middle" x="801" y="-62.6" font-family="Times,serif" font-size="14.00">HomeComponent</text>
</g>
<!-- HomeComponent&#45;&gt;AppModule -->
<g id="edge8" class="edge">
<title>HomeComponent&#45;&gt;AppModule</title>
<path fill="none" stroke="black" d="M801,-84.83C801,-101.2 801,-122.8 801,-122.8 801,-122.8 1049.29,-122.8 1049.29,-122.8"/>
<polygon fill="black" stroke="black" points="1049.29,-126.3 1059.29,-122.8 1049.29,-119.3 1049.29,-126.3"/>
</g>
<!-- MarketingComponent -->
<g id="node9" class="node">
<title>MarketingComponent</title>
<polygon fill="#ffffb3" stroke="black" points="724.65,-84.8 585.35,-84.8 585.35,-48.8 724.65,-48.8 724.65,-84.8"/>
<text text-anchor="middle" x="655" y="-62.6" font-family="Times,serif" font-size="14.00">MarketingComponent</text>
</g>
<!-- MarketingComponent&#45;&gt;AppModule -->
<g id="edge9" class="edge">
<title>MarketingComponent&#45;&gt;AppModule</title>
<path fill="none" stroke="black" d="M655,-85.1C655,-103.07 655,-127.8 655,-127.8 655,-127.8 1049.04,-127.8 1049.04,-127.8"/>
<polygon fill="black" stroke="black" points="1049.04,-131.3 1059.04,-127.8 1049.04,-124.3 1049.04,-131.3"/>
</g>
<!-- NavbarComponent -->
<g id="node10" class="node">
<title>NavbarComponent</title>
<polygon fill="#ffffb3" stroke="black" points="567.03,-84.8 444.97,-84.8 444.97,-48.8 567.03,-48.8 567.03,-84.8"/>
<text text-anchor="middle" x="506" y="-62.6" font-family="Times,serif" font-size="14.00">NavbarComponent</text>
</g>
<!-- NavbarComponent&#45;&gt;AppModule -->
<g id="edge10" class="edge">
<title>NavbarComponent&#45;&gt;AppModule</title>
<path fill="none" stroke="black" d="M506,-84.91C506,-104.14 506,-131.8 506,-131.8 506,-131.8 1049.16,-131.8 1049.16,-131.8"/>
<polygon fill="black" stroke="black" points="1049.16,-135.3 1059.16,-131.8 1049.16,-128.3 1049.16,-135.3"/>
</g>
<!-- OrdenComponent -->
<g id="node11" class="node">
<title>OrdenComponent</title>
<polygon fill="#ffffb3" stroke="black" points="427.31,-84.8 310.69,-84.8 310.69,-48.8 427.31,-48.8 427.31,-84.8"/>
<text text-anchor="middle" x="369" y="-62.6" font-family="Times,serif" font-size="14.00">OrdenComponent</text>
</g>
<!-- OrdenComponent&#45;&gt;AppModule -->
<g id="edge11" class="edge">
<title>OrdenComponent&#45;&gt;AppModule</title>
<path fill="none" stroke="black" d="M369,-84.83C369,-105.57 369,-136.8 369,-136.8 369,-136.8 1049.28,-136.8 1049.28,-136.8"/>
<polygon fill="black" stroke="black" points="1049.28,-140.3 1059.28,-136.8 1049.28,-133.3 1049.28,-140.3"/>
</g>
<!-- ProductosComponent -->
<g id="node12" class="node">
<title>ProductosComponent</title>
<polygon fill="#ffffb3" stroke="black" points="292.83,-84.8 155.17,-84.8 155.17,-48.8 292.83,-48.8 292.83,-84.8"/>
<text text-anchor="middle" x="224" y="-62.6" font-family="Times,serif" font-size="14.00">ProductosComponent</text>
</g>
<!-- ProductosComponent&#45;&gt;AppModule -->
<g id="edge12" class="edge">
<title>ProductosComponent&#45;&gt;AppModule</title>
<path fill="none" stroke="black" d="M224,-85.09C224,-107.01 224,-140.8 224,-140.8 224,-140.8 1049.29,-140.8 1049.29,-140.8"/>
<polygon fill="black" stroke="black" points="1049.29,-144.3 1059.29,-140.8 1049.29,-137.3 1049.29,-144.3"/>
</g>
<!-- TablaComponent -->
<g id="node13" class="node">
<title>TablaComponent</title>
<polygon fill="#ffffb3" stroke="black" points="137.7,-84.8 24.3,-84.8 24.3,-48.8 137.7,-48.8 137.7,-84.8"/>
<text text-anchor="middle" x="81" y="-62.6" font-family="Times,serif" font-size="14.00">TablaComponent</text>
</g>
<!-- TablaComponent&#45;&gt;AppModule -->
<g id="edge13" class="edge">
<title>TablaComponent&#45;&gt;AppModule</title>
<path fill="none" stroke="black" d="M81,-85.12C81,-108.46 81,-145.8 81,-145.8 81,-145.8 1049.11,-145.8 1049.11,-145.8"/>
<polygon fill="black" stroke="black" points="1049.11,-149.3 1059.11,-145.8 1049.11,-142.3 1049.11,-149.3"/>
</g>
<!-- AppComponent  -->
<g id="node17" class="node">
<title>AppComponent </title>
<polygon fill="#80b1d3" stroke="black" points="1155.44,-214.8 1046.56,-214.8 1046.56,-178.8 1155.44,-178.8 1155.44,-214.8"/>
<text text-anchor="middle" x="1101" y="-192.6" font-family="Times,serif" font-size="14.00">AppComponent </text>
</g>
<!-- AppModule&#45;&gt;AppComponent  -->
<g id="edge16" class="edge">
<title>AppModule&#45;&gt;AppComponent </title>
<path fill="none" stroke="black" stroke-dasharray="1,5" d="M1101,-149.91C1101,-149.91 1101,-168.79 1101,-168.79"/>
<polygon fill="black" stroke="black" points="1097.5,-168.79 1101,-178.79 1104.5,-168.79 1097.5,-168.79"/>
</g>
<!-- AppRoutingModule -->
<g id="node15" class="node">
<title>AppRoutingModule</title>
<polygon fill="#8dd3c7" stroke="black" points="2220.27,-84.8 2217.27,-88.8 2196.27,-88.8 2193.27,-84.8 2091.73,-84.8 2091.73,-48.8 2220.27,-48.8 2220.27,-84.8"/>
<text text-anchor="middle" x="2156" y="-62.6" font-family="Times,serif" font-size="14.00">AppRoutingModule</text>
</g>
<!-- AppRoutingModule&#45;&gt;AppModule -->
<g id="edge14" class="edge">
<title>AppRoutingModule&#45;&gt;AppModule</title>
<path fill="none" stroke="black" d="M2156,-85.12C2156,-108.46 2156,-145.8 2156,-145.8 2156,-145.8 1152.68,-145.8 1152.68,-145.8"/>
<polygon fill="black" stroke="black" points="1152.68,-142.3 1142.68,-145.8 1152.68,-149.3 1152.68,-142.3"/>
</g>
<!-- AuthModule -->
<g id="node16" class="node">
<title>AuthModule</title>
<polygon fill="#8dd3c7" stroke="black" points="2073.55,-84.8 2070.55,-88.8 2049.55,-88.8 2046.55,-84.8 1986.45,-84.8 1986.45,-48.8 2073.55,-48.8 2073.55,-84.8"/>
<text text-anchor="middle" x="2030" y="-62.6" font-family="Times,serif" font-size="14.00">AuthModule</text>
</g>
<!-- AuthModule&#45;&gt;AppModule -->
<g id="edge15" class="edge">
<title>AuthModule&#45;&gt;AppModule</title>
<path fill="none" stroke="black" d="M2030,-85.09C2030,-107.01 2030,-140.8 2030,-140.8 2030,-140.8 1152.72,-140.8 1152.72,-140.8"/>
<polygon fill="black" stroke="black" points="1152.72,-137.3 1142.72,-140.8 1152.72,-144.3 1152.72,-137.3"/>
</g>
</g>
</svg>
