<?xml version="1.0" encoding="UTF-8" standalone="no"?>
<!DOCTYPE svg PUBLIC "-//W3C//DTD SVG 1.1//EN"
 "http://www.w3.org/Graphics/SVG/1.1/DTD/svg11.dtd">
<!-- Generated by graphviz version 2.47.3 (20210619.1520)
 -->
<!-- Title: dependencies Pages: 1 -->
<svg width="2643pt" height="323pt"
 viewBox="0.00 0.00 2643.00 322.80" xmlns="http://www.w3.org/2000/svg" xmlns:xlink="http://www.w3.org/1999/xlink">
<g id="graph0" class="graph" transform="scale(1 1) rotate(0) translate(4 318.8)">
<title>dependencies</title>
<polygon fill="white" stroke="transparent" points="-4,4 -4,-318.8 2639,-318.8 2639,4 -4,4"/>
<text text-anchor="middle" x="1317.5" y="-8.2" font-family="sans-serif" font-size="14.00">dependencies</text>
<g id="clust1" class="cluster">
<title>cluster_AppModule</title>
<polygon fill="none" stroke="black" stroke-dasharray="1,5" points="399,-108.8 399,-306.8 2627,-306.8 2627,-108.8 399,-108.8"/>
</g>
<g id="clust2" class="cluster">
<title>cluster_AppModule_declarations</title>
<polygon fill="none" stroke="black" points="665,-116.8 665,-168.8 2619,-168.8 2619,-116.8 665,-116.8"/>
</g>
<g id="clust16" class="cluster">
<title>cluster_AppModule_imports</title>
<polygon fill="none" stroke="black" points="407,-116.8 407,-168.8 657,-168.8 657,-116.8 407,-116.8"/>
</g>
<g id="clust18" class="cluster">
<title>cluster_AppModule_bootstrap</title>
<polygon fill="none" stroke="black" points="1388,-246.8 1388,-298.8 1512,-298.8 1512,-246.8 1388,-246.8"/>
</g>
<g id="clust26" class="cluster">
<title>cluster_AuthModule</title>
<polygon fill="none" stroke="black" stroke-dasharray="1,5" points="8,-32.8 8,-100.8 873,-100.8 873,-32.8 8,-32.8"/>
</g>
<g id="clust27" class="cluster">
<title>cluster_AuthModule_declarations</title>
<polygon fill="none" stroke="black" points="314,-40.8 314,-92.8 865,-92.8 865,-40.8 314,-40.8"/>
</g>
<g id="clust32" class="cluster">
<title>cluster_AuthModule_imports</title>
<polygon fill="none" stroke="black" points="158,-40.8 158,-92.8 306,-92.8 306,-40.8 158,-40.8"/>
</g>
<g id="clust35" class="cluster">
<title>cluster_AuthModule_providers</title>
<polygon fill="none" stroke="black" points="16,-40.8 16,-92.8 150,-92.8 150,-40.8 16,-40.8"/>
</g>
<!-- AppComponent -->
<g id="node1" class="node">
<title>AppComponent</title>
<polygon fill="#ffffb3" stroke="black" points="2610.94,-160.8 2505.06,-160.8 2505.06,-124.8 2610.94,-124.8 2610.94,-160.8"/>
<text text-anchor="middle" x="2558" y="-138.6" font-family="Times,serif" font-size="14.00">AppComponent</text>
</g>
<!-- AppModule -->
<g id="node14" class="node">
<title>AppModule</title>
<polygon fill="#8dd3c7" stroke="black" points="1491.66,-225.8 1488.66,-229.8 1467.66,-229.8 1464.66,-225.8 1408.34,-225.8 1408.34,-189.8 1491.66,-189.8 1491.66,-225.8"/>
<text text-anchor="middle" x="1450" y="-203.6" font-family="Times,serif" font-size="14.00">AppModule</text>
</g>
<!-- AppComponent&#45;&gt;AppModule -->
<g id="edge1" class="edge">
<title>AppComponent&#45;&gt;AppModule</title>
<path fill="none" stroke="black" d="M2558,-161.12C2558,-184.46 2558,-221.8 2558,-221.8 2558,-221.8 1501.75,-221.8 1501.75,-221.8"/>
<polygon fill="black" stroke="black" points="1501.75,-218.3 1491.75,-221.8 1501.75,-225.3 1501.75,-218.3"/>
</g>
<!-- CarritoComponent -->
<g id="node2" class="node">
<title>CarritoComponent</title>
<polygon fill="#ffffb3" stroke="black" points="2487.49,-160.8 2366.51,-160.8 2366.51,-124.8 2487.49,-124.8 2487.49,-160.8"/>
<text text-anchor="middle" x="2427" y="-138.6" font-family="Times,serif" font-size="14.00">CarritoComponent</text>
</g>
<!-- CarritoComponent&#45;&gt;AppModule -->
<g id="edge2" class="edge">
<title>CarritoComponent&#45;&gt;AppModule</title>
<path fill="none" stroke="black" d="M2427,-161.09C2427,-183.01 2427,-216.8 2427,-216.8 2427,-216.8 1501.67,-216.8 1501.67,-216.8"/>
<polygon fill="black" stroke="black" points="1501.67,-213.3 1491.67,-216.8 1501.67,-220.3 1501.67,-213.3"/>
</g>
<!-- CarroNavbarComponent -->
<g id="node3" class="node">
<title>CarroNavbarComponent</title>
<polygon fill="#ffffb3" stroke="black" points="2348.4,-160.8 2193.6,-160.8 2193.6,-124.8 2348.4,-124.8 2348.4,-160.8"/>
<text text-anchor="middle" x="2271" y="-138.6" font-family="Times,serif" font-size="14.00">CarroNavbarComponent</text>
</g>
<!-- CarroNavbarComponent&#45;&gt;AppModule -->
<g id="edge3" class="edge">
<title>CarroNavbarComponent&#45;&gt;AppModule</title>
<path fill="none" stroke="black" d="M2271,-160.83C2271,-181.57 2271,-212.8 2271,-212.8 2271,-212.8 1501.84,-212.8 1501.84,-212.8"/>
<polygon fill="black" stroke="black" points="1501.84,-209.3 1491.84,-212.8 1501.84,-216.3 1501.84,-209.3"/>
</g>
<!-- CarruselComponent -->
<g id="node4" class="node">
<title>CarruselComponent</title>
<polygon fill="#ffffb3" stroke="black" points="2175.25,-160.8 2046.75,-160.8 2046.75,-124.8 2175.25,-124.8 2175.25,-160.8"/>
<text text-anchor="middle" x="2111" y="-138.6" font-family="Times,serif" font-size="14.00">CarruselComponent</text>
</g>
<!-- CarruselComponent&#45;&gt;AppModule -->
<g id="edge4" class="edge">
<title>CarruselComponent&#45;&gt;AppModule</title>
<path fill="none" stroke="black" d="M2111,-160.91C2111,-180.14 2111,-207.8 2111,-207.8 2111,-207.8 1501.85,-207.8 1501.85,-207.8"/>
<polygon fill="black" stroke="black" points="1501.85,-204.3 1491.85,-207.8 1501.85,-211.3 1501.85,-204.3"/>
</g>
<!-- DetalleProductoComponent -->
<g id="node5" class="node">
<title>DetalleProductoComponent</title>
<polygon fill="#ffffb3" stroke="black" points="2028.3,-160.8 1855.7,-160.8 1855.7,-124.8 2028.3,-124.8 2028.3,-160.8"/>
<text text-anchor="middle" x="1942" y="-138.6" font-family="Times,serif" font-size="14.00">DetalleProductoComponent</text>
</g>
<!-- DetalleProductoComponent&#45;&gt;AppModule -->
<g id="edge5" class="edge">
<title>DetalleProductoComponent&#45;&gt;AppModule</title>
<path fill="none" stroke="black" d="M1942,-161.1C1942,-179.07 1942,-203.8 1942,-203.8 1942,-203.8 1501.95,-203.8 1501.95,-203.8"/>
<polygon fill="black" stroke="black" points="1501.95,-200.3 1491.95,-203.8 1501.95,-207.3 1501.95,-200.3"/>
</g>
<!-- FinalizarCompraComponent -->
<g id="node6" class="node">
<title>FinalizarCompraComponent</title>
<polygon fill="#ffffb3" stroke="black" points="1838.19,-160.8 1661.81,-160.8 1661.81,-124.8 1838.19,-124.8 1838.19,-160.8"/>
<text text-anchor="middle" x="1750" y="-138.6" font-family="Times,serif" font-size="14.00">FinalizarCompraComponent</text>
</g>
<!-- FinalizarCompraComponent&#45;&gt;AppModule -->
<g id="edge6" class="edge">
<title>FinalizarCompraComponent&#45;&gt;AppModule</title>
<path fill="none" stroke="black" d="M1750,-160.83C1750,-177.2 1750,-198.8 1750,-198.8 1750,-198.8 1501.71,-198.8 1501.71,-198.8"/>
<polygon fill="black" stroke="black" points="1501.71,-195.3 1491.71,-198.8 1501.71,-202.3 1501.71,-195.3"/>
</g>
<!-- FooterComponent -->
<g id="node7" class="node">
<title>FooterComponent</title>
<polygon fill="#ffffb3" stroke="black" points="1643.88,-160.8 1526.12,-160.8 1526.12,-124.8 1643.88,-124.8 1643.88,-160.8"/>
<text text-anchor="middle" x="1585" y="-138.6" font-family="Times,serif" font-size="14.00">FooterComponent</text>
</g>
<!-- FooterComponent&#45;&gt;AppModule -->
<g id="edge7" class="edge">
<title>FooterComponent&#45;&gt;AppModule</title>
<path fill="none" stroke="black" d="M1585,-160.99C1585,-175.98 1585,-194.8 1585,-194.8 1585,-194.8 1501.97,-194.8 1501.97,-194.8"/>
<polygon fill="black" stroke="black" points="1501.97,-191.3 1491.97,-194.8 1501.97,-198.3 1501.97,-191.3"/>
</g>
<!-- HomeComponent -->
<g id="node8" class="node">
<title>HomeComponent</title>
<polygon fill="#ffffb3" stroke="black" points="1507.55,-160.8 1392.45,-160.8 1392.45,-124.8 1507.55,-124.8 1507.55,-160.8"/>
<text text-anchor="middle" x="1450" y="-138.6" font-family="Times,serif" font-size="14.00">HomeComponent</text>
</g>
<!-- HomeComponent&#45;&gt;AppModule -->
<g id="edge8" class="edge">
<title>HomeComponent&#45;&gt;AppModule</title>
<path fill="none" stroke="black" d="M1450,-160.91C1450,-160.91 1450,-179.79 1450,-179.79"/>
<polygon fill="black" stroke="black" points="1446.5,-179.79 1450,-189.79 1453.5,-179.79 1446.5,-179.79"/>
</g>
<!-- MarketingComponent -->
<g id="node9" class="node">
<title>MarketingComponent</title>
<polygon fill="#ffffb3" stroke="black" points="1373.65,-160.8 1234.35,-160.8 1234.35,-124.8 1373.65,-124.8 1373.65,-160.8"/>
<text text-anchor="middle" x="1304" y="-138.6" font-family="Times,serif" font-size="14.00">MarketingComponent</text>
</g>
<!-- MarketingComponent&#45;&gt;AppModule -->
<g id="edge9" class="edge">
<title>MarketingComponent&#45;&gt;AppModule</title>
<path fill="none" stroke="black" d="M1304,-160.99C1304,-175.98 1304,-194.8 1304,-194.8 1304,-194.8 1398.16,-194.8 1398.16,-194.8"/>
<polygon fill="black" stroke="black" points="1398.16,-198.3 1408.16,-194.8 1398.16,-191.3 1398.16,-198.3"/>
</g>
<!-- NavbarComponent -->
<g id="node10" class="node">
<title>NavbarComponent</title>
<polygon fill="#ffffb3" stroke="black" points="1216.03,-160.8 1093.97,-160.8 1093.97,-124.8 1216.03,-124.8 1216.03,-160.8"/>
<text text-anchor="middle" x="1155" y="-138.6" font-family="Times,serif" font-size="14.00">NavbarComponent</text>
</g>
<!-- NavbarComponent&#45;&gt;AppModule -->
<g id="edge10" class="edge">
<title>NavbarComponent&#45;&gt;AppModule</title>
<path fill="none" stroke="black" d="M1155,-160.83C1155,-177.2 1155,-198.8 1155,-198.8 1155,-198.8 1398.05,-198.8 1398.05,-198.8"/>
<polygon fill="black" stroke="black" points="1398.05,-202.3 1408.05,-198.8 1398.05,-195.3 1398.05,-202.3"/>
</g>
<!-- OrdenComponent -->
<g id="node11" class="node">
<title>OrdenComponent</title>
<polygon fill="#ffffb3" stroke="black" points="1076.31,-160.8 959.69,-160.8 959.69,-124.8 1076.31,-124.8 1076.31,-160.8"/>
<text text-anchor="middle" x="1018" y="-138.6" font-family="Times,serif" font-size="14.00">OrdenComponent</text>
</g>
<!-- OrdenComponent&#45;&gt;AppModule -->
<g id="edge11" class="edge">
<title>OrdenComponent&#45;&gt;AppModule</title>
<path fill="none" stroke="black" d="M1018,-161.1C1018,-179.07 1018,-203.8 1018,-203.8 1018,-203.8 1398.19,-203.8 1398.19,-203.8"/>
<polygon fill="black" stroke="black" points="1398.19,-207.3 1408.19,-203.8 1398.19,-200.3 1398.19,-207.3"/>
</g>
<!-- ProductosComponent -->
<g id="node12" class="node">
<title>ProductosComponent</title>
<polygon fill="#ffffb3" stroke="black" points="941.83,-160.8 804.17,-160.8 804.17,-124.8 941.83,-124.8 941.83,-160.8"/>
<text text-anchor="middle" x="873" y="-138.6" font-family="Times,serif" font-size="14.00">ProductosComponent</text>
</g>
<!-- ProductosComponent&#45;&gt;AppModule -->
<g id="edge12" class="edge">
<title>ProductosComponent&#45;&gt;AppModule</title>
<path fill="none" stroke="black" d="M873,-160.91C873,-180.14 873,-207.8 873,-207.8 873,-207.8 1398.04,-207.8 1398.04,-207.8"/>
<polygon fill="black" stroke="black" points="1398.04,-211.3 1408.04,-207.8 1398.04,-204.3 1398.04,-211.3"/>
</g>
<!-- TablaComponent -->
<g id="node13" class="node">
<title>TablaComponent</title>
<polygon fill="#ffffb3" stroke="black" points="786.7,-160.8 673.3,-160.8 673.3,-124.8 786.7,-124.8 786.7,-160.8"/>
<text text-anchor="middle" x="730" y="-138.6" font-family="Times,serif" font-size="14.00">TablaComponent</text>
</g>
<!-- TablaComponent&#45;&gt;AppModule -->
<g id="edge13" class="edge">
<title>TablaComponent&#45;&gt;AppModule</title>
<path fill="none" stroke="black" d="M730,-160.83C730,-181.57 730,-212.8 730,-212.8 730,-212.8 1398.18,-212.8 1398.18,-212.8"/>
<polygon fill="black" stroke="black" points="1398.18,-216.3 1408.18,-212.8 1398.18,-209.3 1398.18,-216.3"/>
</g>
<!-- AppComponent  -->
<g id="node17" class="node">
<title>AppComponent </title>
<polygon fill="#80b1d3" stroke="black" points="1504.44,-290.8 1395.56,-290.8 1395.56,-254.8 1504.44,-254.8 1504.44,-290.8"/>
<text text-anchor="middle" x="1450" y="-268.6" font-family="Times,serif" font-size="14.00">AppComponent </text>
</g>
<!-- AppModule&#45;&gt;AppComponent  -->
<g id="edge16" class="edge">
<title>AppModule&#45;&gt;AppComponent </title>
<path fill="none" stroke="black" stroke-dasharray="1,5" d="M1450,-225.91C1450,-225.91 1450,-244.79 1450,-244.79"/>
<polygon fill="black" stroke="black" points="1446.5,-244.79 1450,-254.79 1453.5,-244.79 1446.5,-244.79"/>
</g>
<!-- AppRoutingModule -->
<g id="node15" class="node">
<title>AppRoutingModule</title>
<polygon fill="#8dd3c7" stroke="black" points="649.27,-160.8 646.27,-164.8 625.27,-164.8 622.27,-160.8 520.73,-160.8 520.73,-124.8 649.27,-124.8 649.27,-160.8"/>
<text text-anchor="middle" x="585" y="-138.6" font-family="Times,serif" font-size="14.00">AppRoutingModule</text>
</g>
<!-- AppRoutingModule&#45;&gt;AppModule -->
<g id="edge14" class="edge">
<title>AppRoutingModule&#45;&gt;AppModule</title>
<path fill="none" stroke="black" d="M585,-161.09C585,-183.01 585,-216.8 585,-216.8 585,-216.8 1398.28,-216.8 1398.28,-216.8"/>
<polygon fill="black" stroke="black" points="1398.28,-220.3 1408.28,-216.8 1398.28,-213.3 1398.28,-220.3"/>
</g>
<!-- AuthModule -->
<g id="node16" class="node">
<title>AuthModule</title>
<polygon fill="#8dd3c7" stroke="black" points="502.55,-160.8 499.55,-164.8 478.55,-164.8 475.55,-160.8 415.45,-160.8 415.45,-124.8 502.55,-124.8 502.55,-160.8"/>
<text text-anchor="middle" x="459" y="-138.6" font-family="Times,serif" font-size="14.00">AuthModule</text>
</g>
<!-- AuthModule&#45;&gt;AppModule -->
<g id="edge15" class="edge">
<title>AuthModule&#45;&gt;AppModule</title>
<path fill="none" stroke="black" d="M459,-161.12C459,-184.46 459,-221.8 459,-221.8 459,-221.8 1398.05,-221.8 1398.05,-221.8"/>
<polygon fill="black" stroke="black" points="1398.05,-225.3 1408.05,-221.8 1398.05,-218.3 1398.05,-225.3"/>
</g>
<!-- LoginComponent -->
<g id="node18" class="node">
<title>LoginComponent</title>
<polygon fill="#ffffb3" stroke="black" points="857.28,-84.8 742.72,-84.8 742.72,-48.8 857.28,-48.8 857.28,-84.8"/>
<text text-anchor="middle" x="800" y="-62.6" font-family="Times,serif" font-size="14.00">LoginComponent</text>
</g>
<!-- LoginComponent&#45;&gt;AuthModule -->
<g id="edge17" class="edge">
<title>LoginComponent&#45;&gt;AuthModule</title>
<path fill="none" stroke="black" d="M764.61,-84.84C764.61,-97.36 764.61,-111.8 764.61,-111.8 764.61,-111.8 494.08,-111.8 494.08,-111.8 494.08,-111.8 494.08,-114.77 494.08,-114.77"/>
<polygon fill="black" stroke="black" points="490.58,-114.77 494.08,-124.77 497.58,-114.77 490.58,-114.77"/>
</g>
<!-- MainComponent -->
<g id="node19" class="node">
<title>MainComponent</title>
<polygon fill="#ffffb3" stroke="black" points="724.38,-84.8 613.62,-84.8 613.62,-48.8 724.38,-48.8 724.38,-84.8"/>
<text text-anchor="middle" x="669" y="-62.6" font-family="Times,serif" font-size="14.00">MainComponent</text>
</g>
<!-- MainComponent&#45;&gt;AuthModule -->
<g id="edge18" class="edge">
<title>MainComponent&#45;&gt;AuthModule</title>
<path fill="none" stroke="black" d="M631.47,-85.04C631.47,-92.23 631.47,-98.8 631.47,-98.8 631.47,-98.8 485.39,-98.8 485.39,-98.8 485.39,-98.8 485.39,-114.65 485.39,-114.65"/>
<polygon fill="black" stroke="black" points="481.89,-114.65 485.39,-124.65 488.89,-114.65 481.89,-114.65"/>
</g>
<!-- RecoverComponent -->
<g id="node20" class="node">
<title>RecoverComponent</title>
<polygon fill="#ffffb3" stroke="black" points="595.97,-84.8 468.03,-84.8 468.03,-48.8 595.97,-48.8 595.97,-84.8"/>
<text text-anchor="middle" x="532" y="-62.6" font-family="Times,serif" font-size="14.00">RecoverComponent</text>
</g>
<!-- RecoverComponent&#45;&gt;AuthModule -->
<g id="edge19" class="edge">
<title>RecoverComponent&#45;&gt;AuthModule</title>
<path fill="none" stroke="black" d="M476.7,-84.81C476.7,-84.81 476.7,-114.65 476.7,-114.65"/>
<polygon fill="black" stroke="black" points="473.2,-114.65 476.7,-124.65 480.2,-114.65 473.2,-114.65"/>
</g>
<!-- RegisterComponent -->
<g id="node21" class="node">
<title>RegisterComponent</title>
<polygon fill="#ffffb3" stroke="black" points="449.98,-84.8 322.02,-84.8 322.02,-48.8 449.98,-48.8 449.98,-84.8"/>
<text text-anchor="middle" x="386" y="-62.6" font-family="Times,serif" font-size="14.00">RegisterComponent</text>
</g>
<!-- RegisterComponent&#45;&gt;AuthModule -->
<g id="edge20" class="edge">
<title>RegisterComponent&#45;&gt;AuthModule</title>
<path fill="none" stroke="black" d="M432.61,-84.81C432.61,-84.81 432.61,-114.65 432.61,-114.65"/>
<polygon fill="black" stroke="black" points="429.11,-114.65 432.61,-124.65 436.11,-114.65 429.11,-114.65"/>
</g>
<!-- AuthRoutingModule -->
<g id="node22" class="node">
<title>AuthRoutingModule</title>
<polygon fill="#8dd3c7" stroke="black" points="298.17,-84.8 295.17,-88.8 274.17,-88.8 271.17,-84.8 165.83,-84.8 165.83,-48.8 298.17,-48.8 298.17,-84.8"/>
<text text-anchor="middle" x="232" y="-62.6" font-family="Times,serif" font-size="14.00">AuthRoutingModule</text>
</g>
<!-- AuthRoutingModule&#45;&gt;AuthModule -->
<g id="edge21" class="edge">
<title>AuthRoutingModule&#45;&gt;AuthModule</title>
<path fill="none" stroke="black" d="M232,-84.83C232,-105.57 232,-136.8 232,-136.8 232,-136.8 405.23,-136.8 405.23,-136.8"/>
<polygon fill="black" stroke="black" points="405.23,-140.3 415.23,-136.8 405.23,-133.3 405.23,-140.3"/>
</g>
<!-- AuthService -->
<g id="node23" class="node">
<title>AuthService</title>
<ellipse fill="#fdb462" stroke="black" cx="83" cy="-66.8" rx="59.11" ry="18"/>
<text text-anchor="middle" x="83" y="-62.6" font-family="Times,serif" font-size="14.00">AuthService</text>
</g>
<!-- AuthService&#45;&gt;AuthModule -->
<g id="edge22" class="edge">
<title>AuthService&#45;&gt;AuthModule</title>
<path fill="none" stroke="black" d="M83,-85C83,-109.16 83,-148.8 83,-148.8 83,-148.8 405.13,-148.8 405.13,-148.8"/>
<polygon fill="black" stroke="black" points="405.13,-152.3 415.13,-148.8 405.13,-145.3 405.13,-152.3"/>
</g>
</g>
</svg>
