<?xml version="1.0" encoding="UTF-8" standalone="no"?>
<!DOCTYPE svg PUBLIC "-//W3C//DTD SVG 1.1//EN"
 "http://www.w3.org/Graphics/SVG/1.1/DTD/svg11.dtd">
<!-- Generated by graphviz version 2.47.3 (20210619.1520)
 -->
<!-- Title: dependencies Pages: 1 -->
<svg width="889pt" height="174pt"
 viewBox="0.00 0.00 889.00 173.80" xmlns="http://www.w3.org/2000/svg" xmlns:xlink="http://www.w3.org/1999/xlink">
<g id="graph0" class="graph" transform="scale(1 1) rotate(0) translate(4 169.8)">
<title>dependencies</title>
<polygon fill="white" stroke="transparent" points="-4,4 -4,-169.8 885,-169.8 885,4 -4,4"/>
<text text-anchor="middle" x="440.5" y="-8.2" font-family="sans-serif" font-size="14.00">dependencies</text>
<g id="clust1" class="cluster">
<title>cluster_AuthModule</title>
<polygon fill="none" stroke="black" stroke-dasharray="1,5" points="8,-32.8 8,-157.8 873,-157.8 873,-32.8 8,-32.8"/>
</g>
<g id="clust10" class="cluster">
<title>cluster_AuthModule_providers</title>
<polygon fill="none" stroke="black" points="731,-40.8 731,-92.8 865,-92.8 865,-40.8 731,-40.8"/>
</g>
<g id="clust2" class="cluster">
<title>cluster_AuthModule_declarations</title>
<polygon fill="none" stroke="black" points="172,-40.8 172,-92.8 723,-92.8 723,-40.8 172,-40.8"/>
</g>
<g id="clust7" class="cluster">
<title>cluster_AuthModule_imports</title>
<polygon fill="none" stroke="black" points="16,-40.8 16,-92.8 164,-92.8 164,-40.8 16,-40.8"/>
</g>
<!-- LoginComponent -->
<g id="node1" class="node">
<title>LoginComponent</title>
<polygon fill="#ffffb3" stroke="black" points="715.28,-84.8 600.72,-84.8 600.72,-48.8 715.28,-48.8 715.28,-84.8"/>
<text text-anchor="middle" x="658" y="-62.6" font-family="Times,serif" font-size="14.00">LoginComponent</text>
</g>
<!-- AuthModule -->
<g id="node5" class="node">
<title>AuthModule</title>
<polygon fill="#8dd3c7" stroke="black" points="501.55,-149.8 498.55,-153.8 477.55,-153.8 474.55,-149.8 414.45,-149.8 414.45,-113.8 501.55,-113.8 501.55,-149.8"/>
<text text-anchor="middle" x="458" y="-127.6" font-family="Times,serif" font-size="14.00">AuthModule</text>
</g>
<!-- LoginComponent&#45;&gt;AuthModule -->
<g id="edge1" class="edge">
<title>LoginComponent&#45;&gt;AuthModule</title>
<path fill="none" stroke="black" d="M658,-84.82C658,-102.17 658,-125.8 658,-125.8 658,-125.8 511.89,-125.8 511.89,-125.8"/>
<polygon fill="black" stroke="black" points="511.89,-122.3 501.89,-125.8 511.89,-129.3 511.89,-122.3"/>
</g>
<!-- MainComponent -->
<g id="node2" class="node">
<title>MainComponent</title>
<polygon fill="#ffffb3" stroke="black" points="582.38,-84.8 471.62,-84.8 471.62,-48.8 582.38,-48.8 582.38,-84.8"/>
<text text-anchor="middle" x="527" y="-62.6" font-family="Times,serif" font-size="14.00">MainComponent</text>
</g>
<!-- MainComponent&#45;&gt;AuthModule -->
<g id="edge2" class="edge">
<title>MainComponent&#45;&gt;AuthModule</title>
<path fill="none" stroke="black" d="M486.67,-84.91C486.67,-84.91 486.67,-103.79 486.67,-103.79"/>
<polygon fill="black" stroke="black" points="483.17,-103.79 486.67,-113.79 490.17,-103.79 483.17,-103.79"/>
</g>
<!-- RecoverComponent -->
<g id="node3" class="node">
<title>RecoverComponent</title>
<polygon fill="#ffffb3" stroke="black" points="453.97,-84.8 326.03,-84.8 326.03,-48.8 453.97,-48.8 453.97,-84.8"/>
<text text-anchor="middle" x="390" y="-62.6" font-family="Times,serif" font-size="14.00">RecoverComponent</text>
</g>
<!-- RecoverComponent&#45;&gt;AuthModule -->
<g id="edge3" class="edge">
<title>RecoverComponent&#45;&gt;AuthModule</title>
<path fill="none" stroke="black" d="M434.11,-84.91C434.11,-84.91 434.11,-103.79 434.11,-103.79"/>
<polygon fill="black" stroke="black" points="430.61,-103.79 434.11,-113.79 437.61,-103.79 430.61,-103.79"/>
</g>
<!-- RegisterComponent -->
<g id="node4" class="node">
<title>RegisterComponent</title>
<polygon fill="#ffffb3" stroke="black" points="307.98,-84.8 180.02,-84.8 180.02,-48.8 307.98,-48.8 307.98,-84.8"/>
<text text-anchor="middle" x="244" y="-62.6" font-family="Times,serif" font-size="14.00">RegisterComponent</text>
</g>
<!-- RegisterComponent&#45;&gt;AuthModule -->
<g id="edge4" class="edge">
<title>RegisterComponent&#45;&gt;AuthModule</title>
<path fill="none" stroke="black" d="M244,-84.82C244,-102.17 244,-125.8 244,-125.8 244,-125.8 404.44,-125.8 404.44,-125.8"/>
<polygon fill="black" stroke="black" points="404.44,-129.3 414.44,-125.8 404.44,-122.3 404.44,-129.3"/>
</g>
<!-- AuthRoutingModule -->
<g id="node6" class="node">
<title>AuthRoutingModule</title>
<polygon fill="#8dd3c7" stroke="black" points="156.17,-84.8 153.17,-88.8 132.17,-88.8 129.17,-84.8 23.83,-84.8 23.83,-48.8 156.17,-48.8 156.17,-84.8"/>
<text text-anchor="middle" x="90" y="-62.6" font-family="Times,serif" font-size="14.00">AuthRoutingModule</text>
</g>
<!-- AuthRoutingModule&#45;&gt;AuthModule -->
<g id="edge5" class="edge">
<title>AuthRoutingModule&#45;&gt;AuthModule</title>
<path fill="none" stroke="black" d="M90,-85.08C90,-106.12 90,-137.8 90,-137.8 90,-137.8 404.34,-137.8 404.34,-137.8"/>
<polygon fill="black" stroke="black" points="404.34,-141.3 414.34,-137.8 404.34,-134.3 404.34,-141.3"/>
</g>
<!-- AuthService -->
<g id="node7" class="node">
<title>AuthService</title>
<ellipse fill="#fdb462" stroke="black" cx="798" cy="-66.8" rx="59.11" ry="18"/>
<text text-anchor="middle" x="798" y="-62.6" font-family="Times,serif" font-size="14.00">AuthService</text>
</g>
<!-- AuthService&#45;&gt;AuthModule -->
<g id="edge6" class="edge">
<title>AuthService&#45;&gt;AuthModule</title>
<path fill="none" stroke="black" d="M798,-85.08C798,-106.12 798,-137.8 798,-137.8 798,-137.8 511.75,-137.8 511.75,-137.8"/>
<polygon fill="black" stroke="black" points="511.75,-134.3 501.75,-137.8 511.75,-141.3 511.75,-134.3"/>
</g>
</g>
</svg>
